# xmcd CD database file generated by Grip 3.3.1
# 
# Track frame offsets:
#       182
#       20697
#       40252
#       66455
# 
# Disc length: 1160 seconds
# 
# Revision: 5
# Processed by: cddbd v1.5.2PL0 Copyright (c) Steve Scherf et al.
# Submitted via: Grip 3.3.1
# 
DISCID=34048604
DTITLE=Toni Braxton - Un-break My Heart
DYEAR=1996
DGENRE=Pop
TTITLE0=Un-Break My Heart (Album Version)
TTITLE1=You're Makin Me High (Norfside Remix)
TTITLE2=How Many Ways (R. Kelly Remix)
TTITLE3=Un-Break My Heart (Spanish Version)
EXTD=
EXTT0=
EXTT1=
EXTT2=
EXTT3=
PLAYORDER=
